<svg width="21" height="16" viewBox="0 0 21 16" fill="none" xmlns="http://www.w3.org/2000/svg">
<g clip-path="url(#clip0_482_798)">
<path d="M5.44082 10.1217C4.71668 11.5036 4.10997 12.6521 3.32712 14.1509C2.13327 10.5888 1.07642 7.41606 0 4.24331C0.0782852 4.20438 0.136999 4.16545 0.215284 4.10706C1.89842 6.05353 3.60112 8.01946 5.42125 10.1217C7.12395 6.73479 8.76794 3.52311 10.5489 0C12.3299 3.50365 13.9543 6.71533 15.6766 10.1022C17.438 8.07786 19.0624 6.20925 20.7064 4.34063C20.8043 4.39903 20.9021 4.43796 21 4.49635C19.9627 7.59124 18.945 10.6861 17.7903 14.1119C17.027 12.7105 16.4007 11.5231 15.657 10.1411C13.9543 12.0876 12.3299 13.9562 10.5489 15.9805C8.8658 14.0341 7.22181 12.1654 5.44082 10.1022V10.1217Z" fill="white"/>
</g>
<defs>
<clipPath id="clip0_482_798">
<rect width="21" height="16" fill="white"/>
</clipPath>
</defs>
</svg>
