<svg width="2320" height="197" viewBox="0 0 2320 197" fill="none" xmlns="http://www.w3.org/2000/svg">
<g clip-path="url(#clip0_1567_25)">
<path d="M285.831 0H222.466C197.355 0 179.895 9.60498 171.459 27.2468C163.024 9.60498 145.76 0 120.846 0H57.4801C20.5987 0 0 20.7781 0 57.4338V190.139C0 194.648 2.55031 196.804 7.06241 196.804H23.7375C28.2496 196.804 30.4076 194.648 30.4076 190.139V60.7662C30.4076 38.6159 42.1783 26.6587 64.5425 26.6587H122.219C144.387 26.6587 156.55 38.4199 156.55 60.7662V190.139C156.55 194.648 158.708 196.804 163.22 196.804H179.895C184.407 196.804 186.565 194.648 186.565 190.139V60.7662C186.565 38.6159 198.728 26.6587 220.7 26.6587H278.376C300.545 26.6587 312.708 38.4199 312.708 60.7662V190.139C312.708 194.648 314.866 196.804 319.378 196.804H336.053C340.565 196.804 342.723 194.648 342.723 190.139V57.4338C342.723 20.7781 322.124 0 285.635 0H285.831Z" fill="url(#paint0_linear_1567_25)"/>
<path d="M563.423 0H434.534C397.653 0 377.054 20.7781 377.054 57.4338V190.139C377.054 194.648 379.604 196.804 384.116 196.804H400.792C405.304 196.804 407.462 194.648 407.462 190.139V131.529H590.103V190.139C590.103 194.648 592.653 196.804 597.166 196.804H613.841C618.353 196.804 620.511 194.648 620.511 190.139V57.4338C620.511 20.7781 599.912 0 563.423 0ZM590.103 104.871H407.462V60.7662C407.462 38.6159 419.232 26.6587 441.597 26.6587H556.164C578.725 26.6587 590.299 38.8119 590.299 60.7662V104.871H590.103Z" fill="url(#paint1_linear_1567_25)"/>
<path d="M892.021 84.8766H795.109C790.597 84.8766 788.439 87.0328 788.439 91.5413V104.675C788.439 109.183 790.597 111.339 795.109 111.339H868.676V143.095C868.676 162.304 858.475 169.753 835.718 169.753H717.815C695.647 169.753 683.484 157.992 683.484 135.646V60.1781C683.484 38.0279 695.647 26.0706 717.815 26.0706H882.997C887.509 26.0706 890.059 23.5224 890.059 19.0139V6.66468C890.059 2.15622 887.509 0 882.997 0H710.36C673.675 0 653.272 20.7781 653.272 57.4338V139.566C653.272 176.222 673.871 197 710.36 197H839.249C876.131 197 898.887 184.063 898.887 147.995V91.7373C898.887 87.2289 896.337 85.0726 891.825 85.0726L892.021 84.8766Z" fill="url(#paint2_linear_1567_25)"/>
<path d="M1113.31 0H985.402C948.52 0 927.922 20.7781 927.922 57.4338V190.139C927.922 194.648 930.472 196.804 934.984 196.804H951.659C956.171 196.804 958.329 194.648 958.329 190.139V60.7662C958.329 38.6159 970.1 26.6587 992.464 26.6587H1105.85C1128.02 26.6587 1139.99 38.4199 1139.99 60.7662V190.139C1139.99 194.648 1142.54 196.804 1147.05 196.804H1163.73C1168.24 196.804 1170.4 194.648 1170.4 190.139V57.4338C1170.4 20.7781 1149.8 0 1113.31 0Z" fill="url(#paint3_linear_1567_25)"/>
<path d="M1229.05 0H1212.38C1207.87 0 1205.71 2.15622 1205.71 6.66468V190.139C1205.71 194.648 1207.87 196.804 1212.38 196.804H1229.05C1233.57 196.804 1236.12 194.648 1236.12 190.139V6.66468C1236.12 2.15622 1233.57 0 1229.05 0Z" fill="url(#paint4_linear_1567_25)"/>
<path d="M1498.6 0H1268.88C1264.37 0 1262.21 2.15622 1262.21 6.66468V19.602C1262.21 24.1104 1264.37 26.6587 1268.88 26.6587H1368.54V190.139C1368.54 194.648 1371.09 196.804 1375.6 196.804H1392.27C1396.79 196.804 1398.94 194.648 1398.94 190.139V26.6587H1498.6C1503.12 26.6587 1505.67 24.1104 1505.67 19.602V6.66468C1505.67 2.15622 1503.12 0 1498.6 0Z" fill="url(#paint5_linear_1567_25)"/>
<path d="M1765.6 0H1748.93C1744.41 0 1741.86 2.15622 1741.86 6.66468V136.038C1741.86 158.188 1730.09 170.145 1707.73 170.145H1594.34C1572.17 170.145 1560.2 158.384 1560.2 136.038V6.66468C1560.2 2.15622 1558.05 0 1553.53 0H1536.86C1532.35 0 1529.8 2.15622 1529.8 6.66468V139.37C1529.8 176.026 1550.39 196.804 1587.28 196.804H1715.18C1751.87 196.804 1772.27 176.026 1772.27 139.37V6.66468C1772.27 2.15622 1770.11 0 1765.6 0Z" fill="url(#paint6_linear_1567_25)"/>
<path d="M1984.54 0H1814.25C1809.74 0 1807.58 2.15622 1807.58 6.66468V190.139C1807.58 194.648 1809.74 196.804 1814.25 196.804H1984.54C2027.7 196.804 2050.65 172.89 2050.65 130.745V66.0587C2050.65 23.9144 2027.5 0 1984.54 0ZM2020.44 127.805C2020.44 155.444 2005.53 170.341 1977.67 170.341H1837.99V26.6587H1977.67C2005.53 26.6587 2020.44 41.5562 2020.44 69.195V127.805Z" fill="url(#paint7_linear_1567_25)"/>
<path d="M2146.58 26.6587H2312.94C2317.45 26.6587 2320 24.1104 2320 19.602V6.66468C2320 2.15622 2317.45 0 2312.94 0H2139.12C2102.44 0 2082.04 20.7781 2082.04 57.4338V139.566C2082.04 176.222 2102.63 197 2139.12 197H2312.94C2317.45 197 2320 194.844 2320 190.335V177.398C2320 172.89 2317.45 170.341 2312.94 170.341H2146.58C2124.41 170.341 2112.25 158.58 2112.25 136.234V111.731H2290.57C2295.09 111.731 2297.64 109.575 2297.64 105.067V91.9333C2297.64 87.4249 2295.09 85.2687 2290.57 85.2687H2112.25V61.1582C2112.25 39.008 2124.41 27.0507 2146.58 27.0507V26.6587Z" fill="url(#paint8_linear_1567_25)"/>
</g>
<defs>
<linearGradient id="paint0_linear_1567_25" x1="171.537" y1="0" x2="171.537" y2="167.28" gradientUnits="userSpaceOnUse">
<stop stop-color="#EEEEEE"/>
<stop offset="1" stop-color="white"/>
</linearGradient>
<linearGradient id="paint1_linear_1567_25" x1="484.041" y1="0" x2="484.041" y2="197" gradientUnits="userSpaceOnUse">
<stop stop-color="#EEEEEE"/>
<stop offset="1" stop-color="white"/>
</linearGradient>
<linearGradient id="paint2_linear_1567_25" x1="776.164" y1="0" x2="776.164" y2="197" gradientUnits="userSpaceOnUse">
<stop stop-color="#EEEEEE"/>
<stop offset="1" stop-color="white"/>
</linearGradient>
<linearGradient id="paint3_linear_1567_25" x1="1079.33" y1="0" x2="1079.33" y2="197" gradientUnits="userSpaceOnUse">
<stop stop-color="#EEEEEE"/>
<stop offset="1" stop-color="white"/>
</linearGradient>
<linearGradient id="paint4_linear_1567_25" x1="1232.13" y1="0" x2="1232.13" y2="197" gradientUnits="userSpaceOnUse">
<stop stop-color="#EEEEEE"/>
<stop offset="1" stop-color="white"/>
</linearGradient>
<linearGradient id="paint5_linear_1567_25" x1="1384.19" y1="0" x2="1384.19" y2="197" gradientUnits="userSpaceOnUse">
<stop stop-color="#EEEEEE"/>
<stop offset="1" stop-color="white"/>
</linearGradient>
<linearGradient id="paint6_linear_1567_25" x1="1606.03" y1="5.96284e-07" x2="1606.03" y2="196.804" gradientUnits="userSpaceOnUse">
<stop stop-color="#EEEEEE"/>
<stop offset="1" stop-color="white"/>
</linearGradient>
<linearGradient id="paint7_linear_1567_25" x1="1893.7" y1="0" x2="1893.7" y2="197" gradientUnits="userSpaceOnUse">
<stop stop-color="#EEEEEE"/>
<stop offset="1" stop-color="white"/>
</linearGradient>
<linearGradient id="paint8_linear_1567_25" x1="2186.68" y1="0" x2="2186.68" y2="203.133" gradientUnits="userSpaceOnUse">
<stop stop-color="#EEEEEE"/>
<stop offset="1" stop-color="white"/>
</linearGradient>
<clipPath id="clip0_1567_25">
<rect width="2320" height="197" fill="white"/>
</clipPath>
</defs>
</svg>
